<svg width="48" height="48" viewBox="0 0 48 48" fill="none" xmlns="http://www.w3.org/2000/svg"><path d="M32.8322 26.9486C33.3971 25.0443 32.9322 22.8829 32.4383 21.3851C32.4351 21.3272 32.4185 21.271 32.3899 21.2218C32.222 20.7353 32.0671 20.3357 31.9347 20.0473C32.1784 19.9429 32.3391 19.6901 32.3415 19.4079V16.5132C32.3415 16.1294 32.0525 15.8182 31.6959 15.8182H23.7644C23.5862 15.8179 23.4414 15.9732 23.4411 16.1651C23.4411 16.1723 23.4413 16.1795 23.4416 16.1866C23.5514 18.2716 23.4094 19.6859 22.9994 20.6832C22.9912 20.6931 22.9837 20.7036 22.9768 20.7145C22.9756 20.7318 22.9756 20.7493 22.9768 20.7666C22.8203 21.1296 22.6087 21.462 22.3505 21.75L22.3215 21.7709C22.3215 21.7709 22.3215 21.7709 22.3215 21.7952C21.943 22.1837 21.5066 22.5009 21.0302 22.7334C20.2004 23.1298 19.3487 23.471 18.4801 23.7551L18.3154 23.8141C15.2972 24.8914 14.9033 26.8443 14.9098 27.8243C14.909 27.8382 14.909 27.8521 14.9098 27.866V30.3471C14.9103 30.4678 14.9689 30.5797 15.0647 30.6425C15.8045 31.127 16.6029 31.4988 17.4374 31.7475C17.609 31.7995 17.7873 31.6918 17.8355 31.507C17.8446 31.4722 17.8486 31.4361 17.8473 31.4V31.3201H18.3219V31.6676C18.3198 31.8397 18.4352 31.9875 18.593 32.0151C18.8739 32.0637 19.1547 32.1019 19.4291 32.1263C19.519 32.1344 19.608 32.1016 19.6745 32.0359C19.7409 31.9696 19.7784 31.8763 19.7777 31.7788V31.3409H20.2523V31.8344C20.2523 32.0263 20.3968 32.1819 20.5751 32.1819C20.8462 32.1819 21.1174 32.1819 21.4079 32.1402C21.5761 32.1257 21.7054 31.9742 21.7049 31.7927V31.3409H22.1795V31.6467C22.1772 31.8386 22.3198 31.9962 22.4981 31.9987C22.5167 31.999 22.5354 31.9975 22.5539 31.9942C23.1465 31.8965 23.7305 31.7466 24.3003 31.546L24.352 31.5216C26.6116 30.1316 28.0449 31.2749 28.103 31.3236C28.1593 31.3706 28.2286 31.3963 28.2999 31.3965H28.7002C28.8785 31.3965 29.023 31.2409 29.023 31.049V30.4618H29.4846V31.0421C29.4846 31.234 29.6292 31.3896 29.8074 31.3896H30.8469C31.0252 31.3896 31.1697 31.234 31.1697 31.0421V30.4618H31.6474V31.0421C31.6474 31.234 31.792 31.3896 31.9703 31.3896H32.7676C32.9459 31.3896 33.0904 31.234 33.0904 31.0421V27.2961C33.0936 27.1283 32.9849 26.9821 32.8322 26.9486ZM25.1719 16.5202H31.6797V19.3975H25.1719V16.5202ZM21.1142 23.4493L21.1174 23.4701C21.382 23.7014 21.6262 23.9585 21.847 24.2381C21.7884 24.3429 21.7582 24.4633 21.7598 24.5856C21.7576 24.9522 22.0318 25.2512 22.3723 25.2536C22.7129 25.256 22.9907 24.9608 22.9929 24.5942C22.995 24.2489 22.7507 23.9596 22.4312 23.9288C22.2271 23.6291 21.9944 23.3531 21.7372 23.1053C22.0257 22.9285 22.2971 22.7213 22.5475 22.4867C22.8605 22.8029 23.1518 23.1432 23.419 23.5049C23.3067 23.8509 23.4763 24.2294 23.7977 24.3504C24.1192 24.4713 24.4708 24.2887 24.5832 23.9427C24.6955 23.5967 24.5259 23.2181 24.2045 23.0972C24.1378 23.0721 24.0676 23.0596 23.9969 23.0601H23.9194C23.6362 22.6764 23.3277 22.3152 22.9962 21.9794C23.15 21.7754 23.2862 21.5568 23.4029 21.3261C23.9026 21.6061 24.3857 21.9195 24.8491 22.2643C24.8459 22.6347 25.1223 22.9377 25.4663 22.9411C25.8104 22.9446 26.0919 22.6471 26.0951 22.2767C26.0983 21.9063 25.8219 21.6033 25.4778 21.5999C25.3796 21.5989 25.2825 21.6229 25.1945 21.6701C24.7067 21.3146 24.1989 20.992 23.6741 20.704C24.0259 19.6963 24.1776 18.3584 24.1066 16.5341H24.5295V19.4114C24.5295 19.7952 24.8185 20.1064 25.1751 20.1064H31.2246C31.3085 20.2905 31.4505 20.6102 31.6055 21.0272H31.4731C29.5121 21.0425 27.9338 22.7661 27.948 24.8772C27.956 26.0768 28.4867 27.2027 29.3813 27.9181C26.7698 28.6583 22.8412 29.5374 19.5356 29.3081C20.1458 26.6845 19.4162 25.0686 18.9417 24.3597C19.6806 24.0988 20.4059 23.7949 21.1142 23.4493ZM18.2928 24.5578C18.6415 24.9991 19.5518 26.4829 18.8836 29.2108C17.7204 29.1123 16.5907 28.7449 15.5715 28.1335C15.56 28.0541 15.5524 27.9741 15.5489 27.8938V27.8694C15.5231 27.1293 15.7814 25.5273 18.2928 24.5578ZM32.2931 30.6946V30.1143C32.2931 29.9224 32.1485 29.7668 31.9703 29.7668H30.8501C30.6718 29.7668 30.5273 29.9224 30.5273 30.1143V30.6946H30.1302V30.1143C30.1302 29.9224 29.9857 29.7668 29.8074 29.7668H28.6937C28.5155 29.7668 28.3709 29.9224 28.3709 30.1143V30.6807C27.9319 30.3853 26.3276 29.527 24.0517 30.8961C23.6469 31.04 23.2339 31.1561 22.8154 31.2436V31.0039C22.8154 30.812 22.6708 30.6564 22.4926 30.6564H21.3789C21.2006 30.6564 21.0561 30.812 21.0561 31.0039V31.4799H20.8914V30.9934C20.8914 30.8015 20.7469 30.6459 20.5686 30.6459H19.4485C19.2702 30.6459 19.1257 30.8015 19.1257 30.9934V31.407L18.961 31.3826V30.9934C18.961 30.8015 18.8165 30.6459 18.6382 30.6459H17.5181C17.3539 30.6447 17.215 30.7762 17.1953 30.9517C16.6223 30.7487 16.0706 30.482 15.5489 30.156V28.9119C16.9564 29.7146 18.777 30.017 20.7139 30.017C25.8595 30.017 31.7475 27.8972 32.4416 27.6436L32.4448 30.6946H32.2931ZM32.1349 27.0285C31.8605 27.1258 31.1858 27.376 30.2529 27.6436C28.8086 26.8911 28.2044 25.0207 28.9034 23.466C29.3816 22.4025 30.3757 21.7198 31.4731 21.7014C31.6004 21.6995 31.7276 21.7064 31.854 21.7222L31.8573 21.7326C32.3318 23.206 32.7579 25.3084 32.1349 27.0285Z" fill="#0266C1"/><path d="M26.415 16.9407C25.8962 16.9407 25.4756 17.3934 25.4756 17.9519C25.4774 18.5096 25.8969 18.9612 26.415 18.9631C26.9338 18.9631 27.3543 18.5104 27.3543 17.9519C27.3543 17.3934 26.9338 16.9407 26.415 16.9407ZM26.415 18.2681C26.2527 18.2681 26.1212 18.1266 26.1212 17.9519C26.1212 17.7772 26.2527 17.6357 26.415 17.6357C26.5772 17.6357 26.7087 17.7772 26.7087 17.9519C26.7087 18.1266 26.5772 18.2681 26.415 18.2681Z" fill="#0266C1"/><rect x="0.5" y="0.5" width="47" height="47" stroke="#0266C1"/></svg>