<svg width="48" height="48" viewBox="0 0 48 48" fill="none" xmlns="http://www.w3.org/2000/svg"><path d="M23.7185 28.7674C23.1024 26.1648 21.2906 23.9744 18.7959 22.8161C17.5674 22.2457 16.239 21.9562 14.9092 21.9476C14.987 23.7918 15.6676 25.587 16.8867 27.0609C18.6004 29.1327 21.1929 30.3457 23.9392 30.3634C23.9168 29.8304 23.8437 29.2963 23.7185 28.7674ZM23.7185 28.7674C23.2127 26.6309 21.9011 24.7721 20.0674 23.5341C20.0984 23.3495 20.1356 23.1653 20.179 22.9817C20.7003 20.7797 22.0775 18.8728 24.0001 17.6364C25.9226 18.8728 27.2998 20.7797 27.8211 22.9817C27.8645 23.1653 27.9017 23.3495 27.9327 23.5341C26.099 24.7721 24.7875 26.6309 24.2817 28.7674M23.7185 28.7674C23.8437 29.2961 23.9167 29.8301 23.9391 30.3629C23.9772 30.3634 24.0152 30.3636 24.0533 30.3636C24.8232 30.3636 25.5814 30.2696 26.312 30.0891C26.3161 30.0836 26.3203 30.0781 26.3244 30.0726C25.5928 30.259 24.833 30.3584 24.061 30.3634M24.2817 28.7674C24.8978 26.1648 26.7096 23.9744 29.2042 22.8161C30.4328 22.2457 31.7612 21.9562 33.091 21.9476C33.0132 23.7918 32.3326 25.587 31.1135 27.0609C29.3998 29.1327 26.8073 30.3457 24.061 30.3634M24.2817 28.7674C24.1565 29.2963 24.0834 29.8304 24.061 30.3634" stroke="#0266C1" stroke-linecap="round" stroke-linejoin="round"/><rect x="0.5" y="0.5" width="47" height="47" stroke="#0266C1"/></svg>