<svg width="42" height="42" viewBox="0 0 42 42" fill="none" xmlns="http://www.w3.org/2000/svg"><path d="M20.7468 25.2907C20.1923 22.9483 18.5616 20.9769 16.3164 19.9345C15.2107 19.4211 14.0152 19.1605 12.8184 19.1528C12.8884 20.8126 13.501 22.4283 14.5981 23.7548C16.1405 25.6194 18.4737 26.7112 20.9454 26.7271C20.9252 26.2474 20.8594 25.7666 20.7468 25.2907ZM20.7468 25.2907C20.2916 23.3678 19.1111 21.6949 17.4608 20.5807C17.4887 20.4146 17.5221 20.2487 17.5612 20.0835C18.0304 18.1017 19.2699 16.3855 21.0001 15.2727C22.7304 16.3855 23.9699 18.1017 24.4391 20.0835C24.4782 20.2487 24.5116 20.4145 24.5395 20.5807C22.8892 21.6949 21.7088 23.3678 21.2536 25.2907M20.7468 25.2907C20.8594 25.7665 20.9251 26.2471 20.9453 26.7266C20.9795 26.727 21.0138 26.7273 21.0481 26.7273C21.7409 26.7273 22.4233 26.6427 23.0809 26.4802C23.0846 26.4752 23.0883 26.4703 23.0921 26.4653C22.4336 26.6331 21.7498 26.7226 21.055 26.7271M21.2536 25.2907C21.8081 22.9483 23.4387 20.9769 25.6839 19.9345C26.7896 19.4211 27.9851 19.1605 29.182 19.1528C29.112 20.8126 28.4994 22.4283 27.4022 23.7548C25.8599 25.6194 23.5266 26.7112 21.055 26.7271M21.2536 25.2907C21.1409 25.7666 21.0752 26.2474 21.055 26.7271" stroke="#0266C1" stroke-linecap="round" stroke-linejoin="round"/><rect x="0.5" y="0.5" width="41" height="41" stroke="#0266C1"/></svg>