<svg width="42" height="42" viewBox="0 0 42 42" fill="none" xmlns="http://www.w3.org/2000/svg"><path d="M28.949 23.6536C29.4575 21.9398 29.0391 19.9945 28.5946 18.6466C28.5917 18.5944 28.5767 18.5439 28.551 18.4996C28.3999 18.0617 28.2605 17.7021 28.1414 17.4425C28.3606 17.3485 28.5053 17.1211 28.5074 16.867V14.2618C28.5074 13.9164 28.2473 13.6364 27.9264 13.6364H20.7881C20.6277 13.636 20.4974 13.7758 20.4971 13.9486C20.4971 13.955 20.4972 13.9615 20.4976 13.9679C20.5963 15.8443 20.4685 17.1172 20.0995 18.0148C20.0922 18.0237 20.0854 18.0332 20.0792 18.043C20.0781 18.0586 20.0781 18.0743 20.0792 18.0899C19.9384 18.4166 19.7479 18.7157 19.5156 18.9749L19.4894 18.9937C19.4894 18.9937 19.4894 18.9937 19.4894 19.0156C19.1488 19.3653 18.756 19.6508 18.3273 19.86C17.5804 20.2168 16.814 20.5238 16.0321 20.7795L15.884 20.8327C13.1675 21.8022 12.8131 23.5598 12.8189 24.4418C12.8182 24.4543 12.8182 24.4668 12.8189 24.4793V26.7123C12.8193 26.821 12.8721 26.9216 12.9584 26.9782C13.6241 27.4142 14.3427 27.7489 15.0937 27.9727C15.2482 28.0194 15.4086 27.9226 15.4521 27.7563C15.4602 27.725 15.4638 27.6924 15.4627 27.6599V27.588H15.8898V27.9008C15.8879 28.0557 15.9918 28.1887 16.1338 28.2135C16.3866 28.2573 16.6394 28.2917 16.8863 28.3136C16.9672 28.3209 17.0473 28.2914 17.1071 28.2323C17.1669 28.1726 17.2006 28.0886 17.2001 28.0008V27.6068H17.6271V28.0509C17.6271 28.2236 17.7572 28.3636 17.9177 28.3636C18.1617 28.3636 18.4058 28.3636 18.6672 28.3261C18.8186 28.313 18.935 28.1768 18.9345 28.0133V27.6068H19.3616V27.882C19.3595 28.0547 19.4879 28.1965 19.6484 28.1988C19.6652 28.199 19.682 28.1977 19.6986 28.1947C20.2319 28.1068 20.7576 27.9719 21.2704 27.7913L21.3169 27.7694C23.3506 26.5184 24.6405 27.5474 24.6928 27.5911C24.7435 27.6335 24.8058 27.6566 24.87 27.6568H25.2303C25.3907 27.6568 25.5208 27.5168 25.5208 27.3441V26.8155H25.9363V27.3378C25.9363 27.5105 26.0663 27.6506 26.2268 27.6506H27.1623C27.3227 27.6506 27.4528 27.5105 27.4528 27.3378V26.8155H27.8828V27.3378C27.8828 27.5105 28.0129 27.6506 28.1733 27.6506H28.8909C29.0514 27.6506 29.1815 27.5105 29.1815 27.3378V23.9664C29.1843 23.8154 29.0865 23.6838 28.949 23.6536ZM22.0548 14.2681H27.9119V16.8577H22.0548V14.2681ZM18.4029 20.5043L18.4058 20.523C18.6439 20.7312 18.8637 20.9626 19.0624 21.2142C19.0097 21.3086 18.9825 21.4169 18.9839 21.527C18.9819 21.8569 19.2288 22.126 19.5352 22.1282C19.8417 22.1303 20.0917 21.8646 20.0937 21.5347C20.0956 21.224 19.8758 20.9636 19.5882 20.9359C19.4045 20.6662 19.1951 20.4177 18.9636 20.1947C19.2232 20.0356 19.4675 19.8491 19.6928 19.638C19.9746 19.9225 20.2367 20.2288 20.4772 20.5543C20.3762 20.8658 20.5288 21.2064 20.8181 21.3153C21.1074 21.4241 21.4238 21.2598 21.5249 20.9484C21.626 20.6369 21.4734 20.2963 21.1841 20.1874C21.1241 20.1648 21.0609 20.1535 20.9973 20.154H20.9276C20.6727 19.8087 20.395 19.4836 20.0966 19.1814C20.2351 18.9978 20.3576 18.801 20.4627 18.5934C20.9125 18.8454 21.3472 19.1275 21.7643 19.4378C21.7614 19.7712 22.0101 20.0439 22.3198 20.047C22.6295 20.0501 22.8828 19.7823 22.8857 19.449C22.8885 19.1156 22.6398 18.8429 22.3301 18.8398C22.2417 18.8389 22.1543 18.8606 22.0751 18.903C21.6361 18.5831 21.1791 18.2927 20.7067 18.0336C21.0234 17.1266 21.16 15.9225 21.0961 14.2806H21.4766V16.8702C21.4766 17.2156 21.7368 17.4957 22.0577 17.4957H27.5022C27.5777 17.6614 27.7056 17.9491 27.845 18.3244H27.7259C25.961 18.3382 24.5405 19.8895 24.5533 21.7894C24.5605 22.869 25.0382 23.8824 25.8433 24.5262C23.4929 25.1924 19.9572 25.9836 16.9822 25.7772C17.5313 23.416 16.8747 21.9617 16.4476 21.3237C17.1127 21.0888 17.7654 20.8153 18.4029 20.5043ZM15.8636 21.5019C16.1774 21.8991 16.9967 23.2346 16.3953 25.6896C15.3485 25.601 14.3317 25.2704 13.4145 24.7201C13.4041 24.6487 13.3973 24.5766 13.3942 24.5043V24.4824C13.3709 23.8163 13.6033 22.3745 15.8636 21.5019ZM28.4639 27.0251V26.5028C28.4639 26.3301 28.3338 26.19 28.1733 26.19H27.1652C27.0047 26.19 26.8747 26.3301 26.8747 26.5028V27.0251H26.5173V26.5028C26.5173 26.3301 26.3872 26.19 26.2268 26.19H25.2245C25.064 26.19 24.9339 26.3301 24.9339 26.5028V27.0126C24.5388 26.7467 23.0949 25.9742 21.0467 27.2065C20.6823 27.3359 20.3106 27.4404 19.9339 27.5192V27.3034C19.9339 27.1307 19.8039 26.9907 19.6434 26.9907H18.6411C18.4806 26.9907 18.3506 27.1307 18.3506 27.3034V27.7319H18.2024V27.294C18.2024 27.1213 18.0723 26.9813 17.9119 26.9813H16.9037C16.7433 26.9813 16.6132 27.1213 16.6132 27.294V27.6662L16.465 27.6443V27.294C16.465 27.1213 16.335 26.9813 16.1745 26.9813H15.1664C15.0186 26.9801 14.8936 27.0986 14.8758 27.2565C14.3602 27.0737 13.8636 26.8337 13.3942 26.5403V25.4207C14.6609 26.1431 16.2994 26.4152 18.0426 26.4152C22.6736 26.4152 27.9729 24.5074 28.5975 24.2791L28.6004 27.0251H28.4639ZM28.3215 23.7256C28.0745 23.8132 27.4673 24.0383 26.6277 24.2791C25.3279 23.6019 24.7841 21.9186 25.4132 20.5193C25.8435 19.5622 26.7382 18.9478 27.7259 18.9312C27.8405 18.9294 27.955 18.9357 28.0687 18.9499L28.0716 18.9593C28.4987 20.2854 28.8822 22.1775 28.3215 23.7256Z" fill="#0266C1"/><path d="M23.1736 14.6466C22.7067 14.6466 22.3281 15.054 22.3281 15.5566C22.3297 16.0586 22.7073 16.465 23.1736 16.4667C23.6405 16.4667 24.019 16.0593 24.019 15.5566C24.019 15.054 23.6405 14.6466 23.1736 14.6466ZM23.1736 15.8412C23.0275 15.8412 22.9092 15.7138 22.9092 15.5566C22.9092 15.3995 23.0275 15.272 23.1736 15.272C23.3196 15.272 23.4379 15.3995 23.4379 15.5566C23.4379 15.7138 23.3196 15.8412 23.1736 15.8412Z" fill="#0266C1"/><rect x="0.5" y="0.5" width="41" height="41" stroke="#0266C1"/></svg>