<svg width="42" height="42" viewBox="0 0 42 42" fill="none" xmlns="http://www.w3.org/2000/svg">
<path d="M19.159 20.928L20.9999 22.7642L24.2215 19.5509M20.9998 12.8182C19.1006 13.7894 16.9847 14.3058 14.8218 14.3058C14.5298 14.3058 14.2386 14.2964 13.9488 14.2777C13.5746 15.9848 13.5332 17.7612 13.842 19.5081C14.3948 22.6353 16.0347 25.4683 18.4735 27.5094C19.2555 28.1639 20.1035 28.7235 20.9999 29.1819C21.8962 28.7235 22.7443 28.1639 23.5262 27.5094C25.9651 25.4683 27.6049 22.6353 28.1577 19.5081C28.4666 17.7612 28.4252 15.9848 28.051 14.2777C27.7611 14.2964 27.4699 14.3058 27.1779 14.3058C25.015 14.3058 22.8991 13.7894 20.9998 12.8182Z" stroke="#0266C1"/>
<rect x="0.5" y="0.5" width="41" height="41" stroke="#0266C1"/>
</svg>
