<svg width="48" height="48" viewBox="0 0 48 48" fill="none" xmlns="http://www.w3.org/2000/svg">
<path d="M21.9547 23.92L24.0002 25.9602L27.5798 22.3898M24.0001 14.9091C21.8899 15.9881 19.5389 16.5619 17.1357 16.5619C16.8112 16.5619 16.4877 16.5514 16.1656 16.5307C15.7498 18.4275 15.7038 20.4012 16.047 22.3422C16.6612 25.8169 18.4833 28.9647 21.1931 31.2326C22.062 31.9598 23.0043 32.5816 24.0002 33.0909C24.9961 32.5816 25.9384 31.9598 26.8072 31.2326C29.5171 28.9647 31.3391 25.8169 31.9534 22.3422C32.2965 20.4012 32.2505 18.4275 31.8347 16.5307C31.5126 16.5514 31.1891 16.5619 30.8646 16.5619C28.4614 16.5619 26.1104 15.9881 24.0001 14.9091Z" stroke="#0266C1"/>
<rect x="0.5" y="0.5" width="47" height="47" stroke="#0266C1"/>
</svg>
