<svg width="48" height="48" viewBox="0 0 48 48" fill="none" xmlns="http://www.w3.org/2000/svg">
<path d="M40.3636 17.776C40.3636 9.16363 33.0374 2.18188 24 2.18188C14.9626 2.18188 7.63635 9.16363 7.63635 17.776V18.7153C7.63635 22.1613 8.76619 25.5211 10.8679 28.3252L23.9677 45.8024C23.9835 45.8235 24.0165 45.8235 24.0323 45.8024L37.132 28.3252C39.2338 25.5211 40.3636 22.1613 40.3636 18.7153V17.776Z" fill="#0266C1"/>
<path d="M21.0924 12.5767C22.9298 11.7394 25.0702 11.7394 26.9076 12.5767C28.7451 13.414 30.0796 14.9974 30.5334 16.8788C30.9872 18.7602 30.5109 20.7347 29.2394 22.2435C27.9678 23.7522 26.0394 24.631 24 24.631C21.9606 24.631 20.0322 23.7522 18.7606 22.2435C17.4891 20.7347 17.0128 18.7602 17.4666 16.8788C17.9204 14.9974 19.2549 13.414 21.0924 12.5767Z" fill="white"/>
</svg>
