<svg width="42" height="42" viewBox="0 0 42 42" fill="none" xmlns="http://www.w3.org/2000/svg"><g clip-path="url(#clip0_131_2910)"><path d="M26.8443 19.1734H22.4612C21.0895 19.1734 19.9775 20.2936 19.9775 21.6755C19.9775 23.0573 21.0895 24.1776 22.4612 24.1776H24.3606C25.7323 24.1776 26.8443 25.2978 26.8443 26.6797C26.8443 28.0616 25.7323 29.1818 24.3606 29.1818H15.156M17.4937 25.0338C17.4937 23.7332 16.4471 22.6788 15.156 22.6788C13.865 22.6788 12.8184 23.7332 12.8184 25.0338V25.1223C12.8184 25.6387 12.9808 26.1418 13.2823 26.5595L15.1514 29.1485C15.1537 29.1517 15.1584 29.1517 15.1606 29.1485L17.0298 26.5595C17.3313 26.1418 17.4937 25.6387 17.4937 25.1223V25.0338ZM15.6079 24.0644L15.622 24.0711C15.9049 24.2059 16.1112 24.4635 16.182 24.7707C16.2536 25.0812 16.1767 25.4104 15.9772 25.6578C15.7799 25.9026 15.4814 26.0474 15.1684 26.0474H15.1436C14.8306 26.0474 14.5322 25.9026 14.3349 25.6578C14.1354 25.4104 14.0584 25.0812 14.13 24.7707C14.2009 24.4635 14.4072 24.2059 14.6901 24.0711L14.7041 24.0644C14.9902 23.9281 15.3218 23.9281 15.6079 24.0644ZM29.182 15.1897C29.182 13.8891 28.1354 12.8182 26.8443 12.8182C25.5533 12.8182 24.5067 13.8891 24.5067 15.1897C24.5067 15.7009 24.6703 16.2041 24.9733 16.6143L26.8397 19.1408C26.842 19.1439 26.8467 19.1439 26.849 19.1408L28.7153 16.6143C29.0184 16.2041 29.182 15.7009 29.182 15.1897ZM27.2899 14.1693L27.3216 14.1841C27.5973 14.3124 27.7992 14.5611 27.8694 14.8586C27.9415 15.1639 27.8668 15.4854 27.6677 15.7267L27.6578 15.7388C27.4637 15.9741 27.1758 16.1102 26.8722 16.1102H26.8165C26.5128 16.1102 26.225 15.9741 26.0309 15.7388L26.0209 15.7267C25.8219 15.4854 25.7472 15.1639 25.8192 14.8586C25.8895 14.5611 26.0914 14.3124 26.367 14.1841L26.3988 14.1693C26.6814 14.0377 27.0072 14.0377 27.2899 14.1693Z" stroke="#0266C1" stroke-linecap="round"/></g><rect x="0.5" y="0.5" width="41" height="41" stroke="#0266C1"/><defs><clipPath id="clip0_131_2910"><rect width="18" height="18" fill="white" transform="translate(12 12)"/></clipPath></defs></svg>