<svg width="48" height="48" viewBox="0 0 48 48" fill="none" xmlns="http://www.w3.org/2000/svg"><g clip-path="url(#clip0_131_2826)"><path d="M30.4936 21.9704H25.6235C24.0993 21.9704 22.8637 23.2151 22.8637 24.7506C22.8637 26.286 24.0993 27.5307 25.6235 27.5307H27.7339C29.258 27.5307 30.4936 28.7754 30.4936 30.3108C30.4936 31.8462 29.258 33.0909 27.7339 33.0909H17.5066M20.104 28.482C20.104 27.0369 18.9411 25.8654 17.5066 25.8654C16.0721 25.8654 14.9092 27.0369 14.9092 28.482V28.5804C14.9092 29.1542 15.0896 29.7132 15.4246 30.1772L17.5015 33.0539C17.504 33.0574 17.5092 33.0574 17.5117 33.0539L19.5885 30.1772C19.9235 29.7132 20.104 29.1542 20.104 28.5804V28.482ZM18.0087 27.4049L18.0243 27.4123C18.3387 27.5621 18.5678 27.8484 18.6466 28.1897C18.7262 28.5347 18.6406 28.9004 18.419 29.1754C18.1998 29.4474 17.8681 29.6083 17.5204 29.6083H17.4928C17.145 29.6083 16.8134 29.4474 16.5942 29.1754C16.3725 28.9004 16.287 28.5347 16.3666 28.1897C16.4453 27.8484 16.6745 27.5621 16.9889 27.4123L17.0045 27.4049C17.3223 27.2535 17.6908 27.2535 18.0087 27.4049ZM33.091 17.5441C33.091 16.099 31.9281 14.9091 30.4936 14.9091C29.0591 14.9091 27.8962 16.099 27.8962 17.5441C27.8962 18.1122 28.078 18.6713 28.4147 19.127L30.4885 21.9343C30.491 21.9377 30.4962 21.9377 30.4987 21.9343L32.5725 19.127C32.9092 18.6713 33.091 18.1122 33.091 17.5441ZM30.9887 16.4104L31.0239 16.4268C31.3302 16.5694 31.5545 16.8457 31.6326 17.1763C31.7126 17.5154 31.6296 17.8727 31.4085 18.1409L31.3974 18.1543C31.1818 18.4157 30.8619 18.5669 30.5246 18.5669H30.4626C30.1253 18.5669 29.8054 18.4157 29.5898 18.1543L29.5787 18.1409C29.3576 17.8727 29.2746 17.5154 29.3546 17.1763C29.4327 16.8457 29.657 16.5694 29.9633 16.4268L29.9985 16.4104C30.3126 16.2641 30.6746 16.2641 30.9887 16.4104Z" stroke="#0266C1" stroke-linecap="round"/></g><rect x="0.5" y="0.5" width="47" height="47" stroke="#0266C1"/><defs><clipPath id="clip0_131_2826"><rect width="20" height="20" fill="white" transform="translate(14 14)"/></clipPath></defs></svg>